<?xml version="1.0" encoding="UTF-8" standalone="no"?>
<!-- Created with Inkscape (http://www.inkscape.org/) -->

<svg
   width="210mm"
   height="297mm"
   viewBox="0 0 210 297"
   version="1.1"
   id="svg5"
   inkscape:version="1.1.2 (0a00cf5339, 2022-02-04)"
   sodipodi:docname="axciona logo.svg"
   xmlns:inkscape="http://www.inkscape.org/namespaces/inkscape"
   xmlns:sodipodi="http://sodipodi.sourceforge.net/DTD/sodipodi-0.dtd"
   xmlns="http://www.w3.org/2000/svg"
   xmlns:svg="http://www.w3.org/2000/svg">
  <sodipodi:namedview
     id="namedview7"
     pagecolor="#ffffff"
     bordercolor="#666666"
     borderopacity="1.0"
     inkscape:pageshadow="2"
     inkscape:pageopacity="0.0"
     inkscape:pagecheckerboard="0"
     inkscape:document-units="mm"
     showgrid="false"
     inkscape:zoom="0.69664703"
     inkscape:cx="315.79838"
     inkscape:cy="561.25984"
     inkscape:window-width="1920"
     inkscape:window-height="1043"
     inkscape:window-x="0"
     inkscape:window-y="0"
     inkscape:window-maximized="1"
     inkscape:current-layer="layer1" />
  <defs
     id="defs2" />
  <g
     inkscape:label="Layer 1"
     inkscape:groupmode="layer"
     id="layer1"
     style="display:inline">
    <path
       style="fill:#d40000;stroke-width:2.49369;fill-opacity:1"
       d="m 2.3285823,97.967328 c -1.97724524,-5.65263 0.8469593,-9.588294 6.8804347,-9.588294 3.232625,0 5.877501,-1.150565 5.877501,-2.55684 0,-1.406267 -2.800673,-2.556924 -6.2237123,-2.556924 -3.5298252,0 -5.5731071,-1.10669 -4.7206142,-2.55684 0.826736,-1.406268 4.1360902,-2.556826 7.3541825,-2.556826 6.563508,0 10.886363,6.532683 10.886363,16.451569 0,5.918967 -0.925478,6.560257 -9.468079,6.560257 -5.3568343,0 -9.9535394,-1.387836 -10.5860757,-3.196102 z M 15.086518,93.492803 c 0,-1.406255 -1.641643,-2.556927 -3.64811,-2.556927 -2.006455,0 -3.6481073,1.150672 -3.6481073,2.556927 0,1.406271 1.6416523,2.556841 3.6481073,2.556841 2.006467,0 3.64811,-1.15057 3.64811,-2.556841 z m 13.499525,2.413821 c 3.832724,-4.452376 4.050677,-6.055408 1.424462,-10.47649 -3.897841,-6.561682 -1.769063,-9.152921 3.653293,-4.446864 3.18595,2.765087 4.330971,2.846457 5.125599,0.36432 0.56274,-1.75784 2.699513,-3.196086 4.74836,-3.196086 3.308852,0 3.322742,0.645538 0.12428,5.777563 -3.181115,5.104107 -3.179145,6.445439 0.0175,11.505957 3.220482,5.099096 3.206832,5.728306 -0.124283,5.728306 -2.058157,0 -4.243705,-1.438268 -4.856789,-3.196102 -0.891725,-2.556944 -1.759201,-2.556944 -4.337203,0 -1.772373,1.757834 -4.81488,3.196102 -6.76113,3.196102 -2.77692,0 -2.564573,-1.13163 0.986477,-5.256806 z m 23.572561,2.298434 c -5.125315,-5.38832 -3.602961,-14.771548 2.90209,-17.887528 6.415905,-3.073356 13.531524,-1.474778 13.531524,3.03983 0,1.700917 -2.03912,2.129024 -5.167798,1.085047 -5.73581,-1.913907 -9.789526,2.518762 -7.653986,8.369501 0.884463,2.423176 3.29849,3.096256 7.309246,2.037978 4.278868,-1.129013 5.693508,-0.635873 4.954988,1.727498 -1.39726,4.471236 -12.125054,5.571166 -15.876064,1.627674 z m 21.297758,-8.547604 c 0,-8.522854 0.945802,-11.50585 3.648116,-11.50585 2.702308,0 3.648106,2.982996 3.648106,11.50585 0,8.522954 -0.945798,11.505976 -3.648106,11.505976 -2.702314,0 -3.648116,-2.983022 -3.648116,-11.505976 z m 15.078845,8.437724 c -6.821945,-7.172052 -1.682319,-19.943574 8.025837,-19.943574 2.809039,0 6.420656,1.380648 8.025816,3.068236 1.60513,1.68748 2.9185,5.484459 2.9185,8.437614 0,2.953254 -1.31337,6.75014 -2.9185,8.437724 -1.60516,1.687476 -5.216777,3.068252 -8.025816,3.068252 -2.80904,0 -6.420678,-1.380776 -8.025837,-3.068252 z m 12.329023,-5.24162 c 1.55702,-4.692734 -0.6997,-9.588288 -4.419856,-9.588288 -4.272699,0 -6.733538,4.429859 -5.039319,9.071568 1.660769,4.54998 8.005985,4.89653 9.459175,0.51701 z m 11.5053,-2.806942 c 0,-10.768224 0.24543,-11.124144 7.83268,-11.350944 4.30795,-0.12853 9.23289,0.987628 10.94427,2.480868 4.50771,3.932954 4.07679,19.98689 -0.53681,19.98689 -2.54786,0 -3.64807,-2.699002 -3.64807,-8.949032 0,-5.944674 -1.13743,-8.949128 -3.38792,-8.949128 -3.71866,0 -6.34043,5.372754 -6.34043,12.993494 0,2.697558 -1.09441,4.904666 -2.43204,4.904666 -1.33764,0 -2.43205,-5.002656 -2.43205,-11.116814 z m 27.65008,7.330162 c -1.86113,-5.0987 0.97399,-8.997744 6.54247,-8.997744 2.5963,0 4.72059,-1.150565 4.72059,-2.55684 0,-1.406267 -2.80065,-2.556924 -6.22369,-2.556924 -3.52985,0 -5.57316,-1.10669 -4.72068,-2.55684 2.07778,-3.534216 11.78195,-3.210386 15.3221,0.51121 1.60512,1.68749 2.91849,6.678719 2.91849,11.091588 0,7.41924 -0.64896,8.049042 -8.61556,8.363882 -5.44705,0.21551 -9.10394,-0.99779 -9.94372,-3.298532 z m 11.26306,-3.883975 c 0,-1.406255 -1.02988,-2.556927 -2.28856,-2.556927 -1.25867,0 -2.96491,1.150672 -3.79164,2.556927 -0.82636,1.406271 0.20315,2.556841 2.28856,2.556841 2.0854,0 3.79164,-1.15057 3.79164,-2.556841 z M 73.456362,71.759406 c 0,-2.109417 1.641652,-3.83538 3.648116,-3.83538 2.006458,0 3.648106,1.725963 3.648106,3.83538 0,2.10941 -1.641648,3.835256 -3.648106,3.835256 -2.006464,0 -3.648116,-1.725846 -3.648116,-3.835256 z m -7.222274,-1.406284 c -0.10359,-5.549628 4.850012,-10.129394 10.74878,-9.937664 4.834674,0.15751 4.826224,0.22999 -0.278702,2.393712 -2.895454,1.227404 -6.419077,4.318654 -7.830288,6.869419 -2.05581,3.715837 -2.58053,3.849867 -2.63979,0.674533 z M 49.230786,68.436306 c -0.335693,-11.719382 15.081608,-26.383792 27.14489,-25.819331 4.177788,0.195208 3.56776,0.766337 -2.410912,2.255429 -9.78295,2.436721 -17.147067,9.04386 -21.41815,19.21635 -1.771344,4.218832 -3.263468,6.175268 -3.315828,4.347552 z m 10.391708,-4.676894 c 2.159105,-4.400024 5.764434,-8.741864 8.011824,-9.648518 6.001364,-2.421086 5.488834,-1.204788 -3.665724,8.699436 l -8.27174,8.949076 z"
       id="path279" />
  </g>
</svg>
